G04 DipTrace 3.0.0.2*
G04 MSP430FR2311_breakout.gto*
%MOIN*%
G04 #@! TF.FileFunction,Legend,Top*
G04 #@! TF.Part,Single*
%ADD10C,0.009843*%
%ADD35C,0.003088*%
%FSLAX26Y26*%
G04*
G70*
G90*
G75*
G01*
G04 TopSilk*
%LPD*%
X760239Y536028D2*
D10*
Y587169D1*
X762640Y628429D2*
Y679571D1*
X760239Y441028D2*
Y492169D1*
X443998Y439037D2*
X544000D1*
Y1238963D1*
X443998D1*
Y439037D1*
X1244002Y1238963D2*
X1144000D1*
Y439037D1*
X1244002D1*
Y1238963D1*
X780191Y939733D2*
Y727133D1*
X906163Y939733D2*
Y727133D1*
X780191D2*
X906163D1*
X780191Y939733D2*
X823488D1*
X862866D2*
X906163D1*
X823488D2*
G03X862866Y939733I19689J23D01*
G01*
X832803Y615640D2*
D35*
X831852Y617541D1*
X829929Y619465D1*
X828028Y620415D1*
X824203D1*
X822280Y619465D1*
X820378Y617541D1*
X819406Y615640D1*
X818455Y612766D1*
Y607969D1*
X819406Y605117D1*
X820378Y603193D1*
X822280Y601292D1*
X824203Y600319D1*
X828028D1*
X829929Y601292D1*
X831852Y603193D1*
X832803Y605117D1*
X838979Y616568D2*
X840902Y617541D1*
X843776Y620393D1*
Y600319D1*
X830905Y708042D2*
X829954Y709943D1*
X828031Y711866D1*
X826129Y712817D1*
X822305D1*
X820381Y711866D1*
X818480Y709943D1*
X817507Y708042D1*
X816557Y705167D1*
Y700370D1*
X817507Y697518D1*
X818480Y695595D1*
X820381Y693694D1*
X822305Y692721D1*
X826129D1*
X828031Y693694D1*
X829954Y695595D1*
X830905Y697518D1*
X838053Y708019D2*
Y708970D1*
X839004Y710893D1*
X839954Y711844D1*
X841878Y712795D1*
X845702D1*
X847604Y711844D1*
X848554Y710893D1*
X849527Y708970D1*
Y707069D1*
X848554Y705145D1*
X846653Y702293D1*
X837080Y692721D1*
X850478D1*
X828503Y520640D2*
X827552Y522541D1*
X825629Y524465D1*
X823728Y525415D1*
X819903D1*
X817980Y524465D1*
X816078Y522541D1*
X815106Y520640D1*
X814155Y517766D1*
Y512969D1*
X815106Y510117D1*
X816078Y508193D1*
X817980Y506292D1*
X819903Y505319D1*
X823728D1*
X825629Y506292D1*
X827552Y508193D1*
X828503Y510117D1*
X836602Y525393D2*
X847103D1*
X841377Y517744D1*
X844251D1*
X846153Y516793D1*
X847103Y515843D1*
X848076Y512969D1*
Y511067D1*
X847103Y508193D1*
X845202Y506270D1*
X842328Y505319D1*
X839454D1*
X836602Y506270D1*
X835651Y507243D1*
X834679Y509144D1*
X465839Y1287187D2*
Y1271888D1*
X464889Y1269014D1*
X463916Y1268064D1*
X462015Y1267091D1*
X460091D1*
X458190Y1268064D1*
X457239Y1269014D1*
X456266Y1271888D1*
Y1273790D1*
X472015Y1283340D2*
X473938Y1284313D1*
X476812Y1287165D1*
Y1267091D1*
X1216460Y1287187D2*
Y1271888D1*
X1215510Y1269014D1*
X1214537Y1268064D1*
X1212636Y1267091D1*
X1210712D1*
X1208811Y1268064D1*
X1207861Y1269014D1*
X1206888Y1271888D1*
Y1273790D1*
X1223609Y1282389D2*
Y1283340D1*
X1224560Y1285263D1*
X1225510Y1286214D1*
X1227434Y1287165D1*
X1231258D1*
X1233159Y1286214D1*
X1234110Y1285263D1*
X1235083Y1283340D1*
Y1281439D1*
X1234110Y1279515D1*
X1232209Y1276664D1*
X1222636Y1267091D1*
X1236033D1*
X834216Y1163244D2*
X842816D1*
X845690Y1164217D1*
X846663Y1165167D1*
X847614Y1167069D1*
Y1168992D1*
X846663Y1170893D1*
X845690Y1171866D1*
X842816Y1172817D1*
X834216D1*
Y1152721D1*
X840915Y1163244D2*
X847614Y1152721D1*
X853789Y1168970D2*
X855713Y1169943D1*
X858587Y1172795D1*
Y1152721D1*
X830992Y969022D2*
Y954674D1*
X831943Y951800D1*
X833866Y949899D1*
X836740Y948926D1*
X838641D1*
X841515Y949899D1*
X843439Y951800D1*
X844389Y954674D1*
Y969022D1*
X850565Y965175D2*
X852488Y966148D1*
X855362Y969000D1*
Y948926D1*
M02*
