G04 DipTrace 3.0.0.2*
G04 MSP430FR2311_breakout.gbo*
%MOIN*%
G04 #@! TF.FileFunction,Legend,Bot*
G04 #@! TF.Part,Single*
%ADD36C,0.004632*%
%FSLAX26Y26*%
G04*
G70*
G90*
G75*
G01*
G04 BotSilk*
%LPD*%
X1133155Y1236544D2*
D36*
Y1206400D1*
X1115944D1*
X1099517Y1226496D2*
X1102369Y1225070D1*
X1105254Y1222185D1*
X1106680Y1217874D1*
Y1215022D1*
X1105254Y1210711D1*
X1102369Y1207859D1*
X1099517Y1206400D1*
X1095206D1*
X1092321Y1207859D1*
X1089469Y1210711D1*
X1088010Y1215022D1*
Y1217874D1*
X1089469Y1222185D1*
X1092321Y1225070D1*
X1095206Y1226496D1*
X1099517D1*
X1078747D2*
Y1206400D1*
Y1220759D2*
X1074436Y1225070D1*
X1071550Y1226496D1*
X1067273D1*
X1064388Y1225070D1*
X1062962Y1220759D1*
Y1206400D1*
X1053698Y1226496D2*
Y1206400D1*
Y1220759D2*
X1049387Y1225070D1*
X1046502Y1226496D1*
X1042224D1*
X1039339Y1225070D1*
X1037913Y1220759D1*
Y1206400D1*
X1028650Y1236544D2*
X1027224Y1235118D1*
X1025764Y1236544D1*
X1027224Y1238003D1*
X1028650Y1236544D1*
X1027224Y1226496D2*
Y1206400D1*
X1016501Y1217874D2*
X999290D1*
Y1220759D1*
X1000716Y1223644D1*
X1002142Y1225070D1*
X1005027Y1226496D1*
X1009338D1*
X1012190Y1225070D1*
X1015075Y1222185D1*
X1016501Y1217874D1*
Y1215022D1*
X1015075Y1210711D1*
X1012190Y1207859D1*
X1009338Y1206400D1*
X1005027D1*
X1002142Y1207859D1*
X999290Y1210711D1*
X960866Y1236544D2*
Y1206400D1*
X943655D1*
X932965Y1209285D2*
X934391Y1207826D1*
X932965Y1206400D1*
X931506Y1207826D1*
X932965Y1209285D1*
X872986Y1232233D2*
X875838Y1235118D1*
X880149Y1236544D1*
X885886D1*
X890197Y1235118D1*
X893082Y1232233D1*
Y1229381D1*
X891623Y1226496D1*
X890197Y1225070D1*
X887345Y1223644D1*
X878723Y1220759D1*
X875838Y1219333D1*
X874412Y1217874D1*
X872986Y1215022D1*
Y1210711D1*
X875838Y1207859D1*
X880149Y1206400D1*
X885886D1*
X890197Y1207859D1*
X893082Y1210711D1*
X856560Y1226496D2*
X859412Y1225070D1*
X862297Y1222185D1*
X863723Y1217874D1*
Y1215022D1*
X862297Y1210711D1*
X859412Y1207859D1*
X856560Y1206400D1*
X852249D1*
X849364Y1207859D1*
X846512Y1210711D1*
X845053Y1215022D1*
Y1217874D1*
X846512Y1222185D1*
X849364Y1225070D1*
X852249Y1226496D1*
X856560D1*
X835789D2*
Y1212137D1*
X834363Y1207859D1*
X831478Y1206400D1*
X827167D1*
X824315Y1207859D1*
X820004Y1212137D1*
Y1226496D2*
Y1206400D1*
X793530Y1236544D2*
Y1206400D1*
Y1222185D2*
X796381Y1225070D1*
X799267Y1226496D1*
X803578D1*
X806429Y1225070D1*
X809315Y1222185D1*
X810740Y1217874D1*
Y1215022D1*
X809315Y1210711D1*
X806429Y1207859D1*
X803578Y1206400D1*
X799267D1*
X796381Y1207859D1*
X793530Y1210711D1*
X784266Y1217874D2*
X767055D1*
Y1220759D1*
X768481Y1223644D1*
X769907Y1225070D1*
X772792Y1226496D1*
X777103D1*
X779955Y1225070D1*
X782840Y1222185D1*
X784266Y1217874D1*
Y1215022D1*
X782840Y1210711D1*
X779955Y1207859D1*
X777103Y1206400D1*
X772792D1*
X769907Y1207859D1*
X767055Y1210711D1*
X757792Y1226496D2*
Y1206400D1*
Y1217874D2*
X756332Y1222185D1*
X753480Y1225070D1*
X750595Y1226496D1*
X746284D1*
X707860Y1236544D2*
Y1206400D1*
X698597Y1236544D2*
Y1206400D1*
M02*
